<svg width="28" height="28" viewBox="0 0 28 28" fill="none" xmlns="http://www.w3.org/2000/svg">
<path d="M14 24.5C19.799 24.5 24.5 19.799 24.5 14C24.5 8.20101 19.799 3.5 14 3.5C8.20101 3.5 3.5 8.20101 3.5 14C3.5 19.799 8.20101 24.5 14 24.5Z" stroke="white" stroke-width="2" stroke-linecap="round" stroke-linejoin="round"/>
<g clip-path="url(#clip0)">
<path d="M20.125 22.3125V21.1996C20.125 20.4504 19.8023 19.732 19.228 19.2023C18.6537 18.6726 17.8747 18.375 17.0625 18.375H10.9375C10.1253 18.375 9.34632 18.6726 8.77199 19.2023C8.19766 19.732 7.875 20.4504 7.875 21.1996V22.3125" stroke="white" stroke-width="2" stroke-linecap="round" stroke-linejoin="round"/>
<path d="M14 15C15.6569 15 17 13.6569 17 12C17 10.3431 15.6569 9 14 9C12.3431 9 11 10.3431 11 12C11 13.6569 12.3431 15 14 15Z" stroke="white" stroke-width="2" stroke-linecap="round" stroke-linejoin="round"/>
</g>
<defs>
<clipPath id="clip0">
<rect width="15.75" height="15.75" fill="white" transform="translate(6.125 7.875)"/>
</clipPath>
</defs>
</svg>
